<svg width="60" height="61" viewBox="0 0 60 61" fill="none" xmlns="http://www.w3.org/2000/svg">
<path d="M58.8497 32.6541C59.3827 32.0002 60 31.2326 60 30.7635C60 30.2944 59.3827 29.541 58.8497 28.873C58.0432 28.0478 57.463 27.0238 57.1662 25.9021C57.0624 24.7184 57.2655 23.5277 57.7554 22.4479C58.073 21.8001 58.2226 21.081 58.1903 20.3584C58.036 19.9177 57.2224 19.4344 56.4929 18.9369C55.4486 18.4387 54.5496 17.6747 53.8836 16.7194C53.393 15.6498 53.1852 14.4693 53.2803 13.2937C53.3331 12.5965 53.2276 11.8963 52.9717 11.2468C52.382 10.8529 51.7093 10.6046 51.0077 10.5219C49.8488 10.4113 48.7376 10.0001 47.7812 9.32783C46.965 8.49432 46.3754 7.46111 46.0697 6.32854C45.7049 5.56095 45.3963 4.637 44.9895 4.40956C44.29 4.22784 43.5566 4.22784 42.8571 4.40956C41.7304 4.70824 40.5469 4.70824 39.4202 4.40956C38.3789 3.91313 37.4805 3.15458 36.8108 2.2063C36.2637 1.55242 35.6465 0.784831 35.1835 0.784831C34.4804 0.889514 33.812 1.16238 33.2336 1.58085C32.2579 2.23692 31.1325 2.62845 29.9649 2.71802C28.7935 2.6157 27.6678 2.20938 26.6963 1.53821C26.1179 1.11974 25.4495 0.84687 24.7463 0.742188C24.2974 0.813261 23.6661 1.55242 23.119 2.16365C22.4493 3.11193 21.551 3.87049 20.5097 4.36692C19.3818 4.65573 18.2006 4.65573 17.0727 4.36692C16.3782 4.18392 15.649 4.18392 14.9544 4.36692C14.5616 4.59435 14.2249 5.48988 13.9303 6.2859C13.6246 7.41847 13.035 8.45168 12.2188 9.28519C11.2662 9.95457 10.1602 10.3656 9.00631 10.4792C8.27027 10.5544 7.56533 10.8186 6.95815 11.2468C6.68703 11.9269 6.58118 12.663 6.64952 13.3932C6.7593 14.5485 6.57579 15.7131 6.11644 16.7763C5.45043 17.7316 4.55142 18.4956 3.50713 18.9938C2.79168 19.4344 1.96399 19.9177 1.80968 20.4153C1.77739 21.1379 1.92705 21.8569 2.24456 22.5048C2.73449 23.5845 2.93759 24.7752 2.83376 25.959C2.53698 27.0807 1.95677 28.1046 1.15034 28.9298C0.617255 29.5979 0 30.3513 0 30.8204C0 31.2894 0.617255 32.057 1.15034 32.7109C1.95677 33.5361 2.53698 34.5601 2.83376 35.6818C2.93759 36.8655 2.73449 38.0562 2.24456 39.1359C1.92933 39.7897 1.77986 40.5127 1.80968 41.2397C1.96399 41.6661 2.77765 42.1637 3.50713 42.6612C4.5369 43.1236 5.43451 43.8424 6.11644 44.7507C6.58656 45.8358 6.77026 47.0261 6.64952 48.2049C6.58007 48.9351 6.68596 49.6715 6.95815 50.3513C7.56942 50.7471 8.26869 50.9816 8.99228 51.0336C10.1512 51.1442 11.2624 51.5554 12.2188 52.2276C13.035 53.0611 13.6246 54.0943 13.9303 55.2269C14.2249 56.0229 14.5476 56.9184 14.9404 57.1459C15.6457 57.3044 16.3792 57.2799 17.0727 57.0748C18.1994 56.7761 19.383 56.7761 20.5097 57.0748C21.5531 57.5612 22.4527 58.3159 23.119 59.2639C23.6661 59.9177 24.2834 60.6853 24.7463 60.6853C25.4536 60.5872 26.1246 60.3084 26.6963 59.8751C27.6733 59.2241 28.7986 58.8374 29.9649 58.7521C31.1364 58.8545 32.2621 59.2608 33.2336 59.9319C33.8076 60.361 34.4775 60.6393 35.1835 60.7422C35.6325 60.6569 36.2637 59.9177 36.8108 59.3207C37.4771 58.3728 38.3767 57.6181 39.4202 57.1317C40.5469 56.833 41.7304 56.833 42.8571 57.1317C43.5457 57.3381 44.2749 57.3625 44.9754 57.2027C45.3682 56.9753 45.7049 56.0798 45.9995 55.2838C46.3053 54.1512 46.8948 53.118 47.711 52.2845C48.6595 51.5999 49.7658 51.1741 50.9235 51.0478C51.652 50.9982 52.3563 50.7635 52.9717 50.3655C53.2462 49.6814 53.3521 48.9398 53.2803 48.2049C53.185 47.0339 53.393 45.858 53.8836 44.7934C54.5432 43.8181 55.4426 43.0342 56.4929 42.519C57.2083 42.0926 58.036 41.5951 58.1903 41.0976C58.2201 40.3706 58.0707 39.6475 57.7554 38.9938C57.2655 37.914 57.0624 36.7234 57.1662 35.5396C57.4762 34.4484 58.0556 33.4553 58.8497 32.6541ZM29.9649 54.3456C25.3619 54.3456 20.8622 52.9625 17.035 50.3713C13.2077 47.7801 10.2247 44.097 8.46318 39.788C6.70168 35.4789 6.24079 30.7373 7.1388 26.1629C8.0368 21.5884 10.2534 17.3865 13.5082 14.0885C16.763 10.7904 20.9099 8.54446 25.4245 7.63454C29.9391 6.72462 34.6186 7.19163 38.8712 8.9765C43.1239 10.7614 46.7587 13.7839 49.316 17.662C51.8733 21.5401 53.2383 26.0994 53.2383 30.7635C53.2308 37.0156 50.7764 43.0094 46.4135 47.4303C42.0505 51.8511 36.1351 54.3381 29.9649 54.3456Z" fill="#005670"/>
<path fill-rule="evenodd" clip-rule="evenodd" d="M29.9999 52.1696C41.8345 52.1696 51.4284 42.5757 51.4284 30.7411C51.4284 18.9064 41.8345 9.3125 29.9999 9.3125C18.1652 9.3125 8.57129 18.9064 8.57129 30.7411C8.57129 42.5757 18.1652 52.1696 29.9999 52.1696ZM34.4475 32.3912L39.4328 28.5688C39.565 28.4456 39.6601 28.2851 39.7066 28.1066C39.753 27.9282 39.7488 27.7395 39.6945 27.5635C39.6402 27.3875 39.5381 27.2317 39.4005 27.115C39.263 26.9983 39.0959 26.9258 38.9196 26.9061H32.7521L30.8368 20.7808C30.7639 20.6139 30.6466 20.4725 30.4987 20.3733C30.3508 20.2741 30.1787 20.2214 30.0029 20.2214C29.8271 20.2214 29.655 20.2741 29.5071 20.3733C29.3592 20.4725 29.2419 20.6139 29.169 20.7808L27.2537 26.8965H21.077C20.9007 26.9162 20.7337 26.9888 20.5961 27.1055C20.4586 27.2222 20.3564 27.378 20.3021 27.554C20.2478 27.73 20.2436 27.9186 20.2901 28.0971C20.3365 28.2755 20.4316 28.4361 20.5638 28.5593L25.5491 32.3816L23.643 38.4974C23.6068 38.6781 23.6215 38.8658 23.6854 39.0379C23.7493 39.2101 23.8596 39.3592 24.0031 39.4674C24.1465 39.5755 24.317 39.638 24.4937 39.6473C24.6705 39.6567 24.8461 39.6124 24.9993 39.5199L29.9937 35.6975L34.9882 39.5199C35.1348 39.639 35.3156 39.7029 35.5014 39.7014C35.692 39.7077 35.8792 39.6472 36.0329 39.5294C36.185 39.4179 36.2985 39.2581 36.3563 39.0738C36.4141 38.8895 36.4132 38.6907 36.3536 38.507L34.4475 32.3912Z" fill="#005670"/>
</svg>
