<svg width="60" height="54" viewBox="0 0 60 54" fill="none" xmlns="http://www.w3.org/2000/svg">
<path fill-rule="evenodd" clip-rule="evenodd" d="M18.0166 5.92204L24.0083 0H35.9917L41.9834 5.92204V11.8441H50.971C54.1466 11.8441 56.6032 14.8051 56.9627 17.7661L59.9585 47.3763C60.318 50.3373 58.3408 53.2983 53.9668 53.2983H6.03316C1.65922 53.2983 -0.318049 50.3373 0.0414538 47.3763L3.03731 17.7661C3.39681 14.8051 5.58379 11.8441 9.02902 11.8441H18.0166V5.92204ZM35.9917 5.92204H24.0083V11.8441H35.9917V5.92204ZM42.6387 41.8026V37.4133H16.7211V41.8026H42.6387ZM41.6898 34.2545C42.2973 33.6372 42.6387 32.7998 42.6387 31.9268C42.6387 31.0537 42.2973 30.2163 41.6898 29.599C41.0822 28.9816 40.2582 28.6348 39.399 28.6348C38.5397 28.6348 37.7157 28.9816 37.1082 29.599C36.5006 30.2163 36.1593 31.0537 36.1593 31.9268C36.1593 32.7998 36.5006 33.6372 37.1082 34.2545C37.7157 34.8719 38.5397 35.2187 39.399 35.2187C40.2582 35.2187 41.0822 34.8719 41.6898 34.2545ZM16.7211 28.6348V24.2455H23.2005C23.7733 24.2455 24.3226 24.4767 24.7277 24.8883C25.1327 25.2999 25.3603 25.8581 25.3603 26.4402V28.6348H29.6799V24.2455H33.9995V30.8294C33.9995 33.2655 32.0772 35.2187 29.6799 35.2187H25.3603C22.9629 35.2187 21.0407 33.2655 21.0407 30.8294V28.6348H16.7211Z" fill="#005670"/>
</svg>
