<svg width="65" height="48" viewBox="0 0 65 48" fill="none" xmlns="http://www.w3.org/2000/svg">
<path d="M22.9187 23.982C27.6449 23.982 31.4761 20.1507 31.4761 15.4246C31.4761 10.6985 27.6449 6.86719 22.9187 6.86719C18.1926 6.86719 14.3613 10.6985 14.3613 15.4246C14.3613 20.1507 18.1926 23.982 22.9187 23.982Z" fill="#005670" stroke="#005670" stroke-width="4" stroke-linejoin="round"/>
<path d="M4.85156 44.9C4.85156 36.8769 10.7229 29.3892 15.6909 27.7852C15.6909 27.7852 20.2074 32.5992 22.9172 35.8082L30.1435 27.7852C34.2082 28.3205 40.9828 36.8779 40.9828 44.9" fill="#005670"/>
<path d="M4.85156 44.9C4.85156 36.8769 10.7229 29.3892 15.6909 27.7852C15.6909 27.7852 20.2074 32.5992 22.9172 35.8082L30.1435 27.7852C34.2082 28.3205 40.9828 36.8779 40.9828 44.9" stroke="#005670" stroke-width="4" stroke-linejoin="round"/>
<path d="M2 44.8984H43.8362H2Z" fill="#005670"/>
<path d="M2 44.8984H43.8362" stroke="#005670" stroke-width="4" stroke-linecap="round" stroke-linejoin="round"/>
<path d="M51.4128 21.415L46.9587 24.8301L48.6617 30.2942C48.7149 30.4583 48.7158 30.636 48.6641 30.8006C48.6125 30.9653 48.5111 31.1081 48.3752 31.2077C48.2378 31.3129 48.0706 31.367 47.9003 31.3614C47.7343 31.3627 47.5727 31.3055 47.4418 31.1992L42.9795 27.7841L38.5173 31.1992C38.3804 31.2818 38.2235 31.3214 38.0656 31.313C37.9076 31.3047 37.7554 31.2489 37.6272 31.1522C37.4991 31.0556 37.4005 30.9224 37.3434 30.7686C37.2863 30.6148 37.2731 30.4471 37.3055 30.2856L39.0085 24.8215L34.5545 21.4065C34.4363 21.2964 34.3514 21.153 34.3098 20.9935C34.2683 20.8341 34.2721 20.6655 34.3206 20.5083C34.3692 20.351 34.4604 20.2118 34.5833 20.1076C34.7062 20.0033 34.8554 19.9385 35.013 19.9209H40.5314L42.2426 14.4568C42.3078 14.3078 42.4126 14.1814 42.5448 14.0928C42.6769 14.0042 42.8306 13.957 42.9877 13.957C43.1448 13.957 43.2986 14.0042 43.4307 14.0928C43.5628 14.1814 43.6677 14.3078 43.7328 14.4568L45.444 19.9295H50.9543C51.1118 19.947 51.2611 20.0119 51.384 20.1161C51.5068 20.2204 51.5981 20.3596 51.6466 20.5168C51.6952 20.6741 51.6989 20.8426 51.6574 21.0021C51.6159 21.1615 51.5309 21.3049 51.4128 21.415Z" fill="#005670"/>
<path d="M41.372 44.2557C52.7644 44.2557 61.9998 35.0203 61.9998 23.6278C61.9998 12.2354 52.7644 3 41.372 3C29.9795 3 20.7441 12.2354 20.7441 23.6278" stroke="#005670" stroke-width="6"/>
</svg>
