<svg width="55" height="56" viewBox="0 0 55 56" fill="none" xmlns="http://www.w3.org/2000/svg">
<path fill-rule="evenodd" clip-rule="evenodd" d="M3.4375 0.859375H51.5625C53.4531 0.859375 55 2.40622 55 4.29687V43.2552C55 45.1458 53.4531 46.6927 51.5625 46.6927H37.8125V48.9844H40.1042C40.7344 48.9844 41.25 49.5 41.25 50.1302V54.7135C41.25 55.3437 40.7344 55.8594 40.1042 55.8594H14.8958C14.2656 55.8594 13.75 55.3437 13.75 54.7135V50.1302C13.75 49.5 14.2656 48.9844 14.8958 48.9844H17.1875V46.6927H3.4375C1.54685 46.6927 0 45.1458 0 43.2552V4.29687C0 2.40622 1.54685 0.859375 3.4375 0.859375ZM40.1042 40.9635C40.1042 41.5937 40.6198 42.1094 41.25 42.1094H45.8333C46.4635 42.1094 46.9792 41.5937 46.9792 40.9635C46.9792 40.3333 46.4635 39.8177 45.8333 39.8177H41.25C40.6198 39.8177 40.1042 40.3333 40.1042 40.9635ZM45.0694 8.49886H6.875V11.5544H45.0694V8.49886ZM6.875 17.6655H40.4861V20.7211H6.875V17.6655ZM43.5417 26.8322H6.875V29.8877H43.5417V26.8322Z" fill="#005670"/>
</svg>
