<svg width="46" height="53" viewBox="0 0 46 53" fill="none" xmlns="http://www.w3.org/2000/svg">
<path fill-rule="evenodd" clip-rule="evenodd" d="M14.4038 0.5C11.151 0.5 8.76417 3.55695 9.55312 6.71268L10.2633 9.55318C10.4024 10.1096 10.9023 10.5 11.4759 10.5H34.524C35.0975 10.5 35.5975 10.1096 35.7367 9.55318L36.4468 6.71268C37.2357 3.55695 34.849 0.5 31.596 0.5H14.4038ZM11.75 13.0676C11.0596 13.0676 10.4934 13.6288 10.5615 14.3158C11.1879 20.6333 16.5177 25.5676 23 25.5676C29.4823 25.5676 34.812 20.6333 35.4385 14.3158C35.5065 13.6288 34.9403 13.0676 34.25 13.0676H11.75ZM16.8797 27.8882C7.73675 28.4659 0.5 36.0642 0.5 45.3529C0.5 49.4949 3.85788 52.8529 8 52.8529H38C42.1423 52.8529 45.5 49.4949 45.5 45.3529C45.5 36.0642 38.2632 28.4659 29.1202 27.8882C28.409 27.8432 27.7287 28.1569 27.2545 28.6887L23.9328 32.4349C23.6842 32.7134 23.3422 32.8527 23 32.8527C22.6577 32.8527 22.3157 32.7134 22.0672 32.4349L18.7455 28.6887C18.2712 28.1569 17.5909 27.8432 16.8797 27.8882ZM18 35.3529C18.6902 35.3529 19.25 35.9127 19.25 36.6029V39.1032H21.75C22.4402 39.1032 23 39.6627 23 40.3532V42.8532C23 43.5434 22.4402 44.1032 21.75 44.1032H19.25V46.6029C19.25 47.2932 18.6902 47.8529 18 47.8529H15.5C14.8096 47.8529 14.25 47.2932 14.25 46.6029L14.2499 44.1032H11.75C11.0596 44.1032 10.5 43.5434 10.5 42.8532V40.3532C10.5 39.6629 11.0596 39.1032 11.75 39.1032H14.2499V36.6029C14.2499 35.9127 14.8096 35.3529 15.5 35.3529H18Z" fill="#005670"/>
</svg>
