<svg width="12" height="9" viewBox="0 0 12 9" fill="none" xmlns="http://www.w3.org/2000/svg">
<path d="M11.7645 1.2533L11.3165 0.758805C11.2423 0.676476 11.154 0.611217 11.0568 0.566806C10.9596 0.522395 10.8553 0.499714 10.7501 0.500076C10.5332 0.502639 10.3261 0.599923 10.174 0.770637L6.00224 5.37547C6.002 5.37578 6.00171 5.37602 6.00138 5.37618C6.00105 5.37635 6.00069 5.37643 6.00032 5.37643C5.99996 5.37643 5.9996 5.37635 5.99927 5.37618C5.99894 5.37602 5.99865 5.37578 5.9984 5.37547L1.81605 0.758805C1.74175 0.676757 1.65353 0.61167 1.55644 0.567263C1.45934 0.522856 1.35527 0.5 1.25017 0.5C1.14507 0.5 1.041 0.522856 0.943901 0.567263C0.846806 0.61167 0.758589 0.676757 0.684291 0.758805L0.234021 1.25613C0.0841619 1.4219 0 1.64652 0 1.8807C0 2.11488 0.0841619 2.33949 0.234021 2.50527L5.43101 8.24127C5.50516 8.32356 5.59336 8.38879 5.6905 8.43321C5.78765 8.47762 5.89181 8.50032 5.99696 8.5H6.00368C6.10881 8.50033 6.21296 8.47764 6.31008 8.43323C6.4072 8.38881 6.49537 8.32357 6.56948 8.24127L11.7645 2.50721C11.8392 2.42491 11.8984 2.32717 11.9388 2.2196C11.9792 2.11202 12 1.99671 12 1.88026C12 1.7638 11.9792 1.64849 11.9388 1.54092C11.8984 1.43334 11.8392 1.33561 11.7645 1.2533Z" fill="#222222"/>
</svg>
