<svg width="17" height="16" viewBox="0 0 17 16" fill="none" xmlns="http://www.w3.org/2000/svg">
<g clip-path="url(#clip0_1611_390)">
<path d="M15.815 2.15593H13.8496V0.542373C13.8496 0.162712 13.6103 0 13.3331 0H12.489C12.1993 0 11.9725 0.176271 11.9725 0.542373V2.14237H4.79138V0.542373C4.79138 0.162712 4.55201 0 4.27485 0H3.44335C3.15359 0 2.91422 0.176271 2.91422 0.542373V2.14237H0.974059C0.6465 2.14237 0.394531 2.4678 0.394531 2.86102V14.6712V15.2678C0.394531 15.661 0.659098 15.9864 0.974059 15.9864H3.94729H15.815C16.1426 15.9864 16.3945 15.661 16.3945 15.2678V6.31864V2.87458C16.3945 2.48136 16.13 2.15593 15.815 2.15593ZM4.21185 14.7661H1.65437V12.6102H4.21185V14.7661ZM4.21185 11.7831H1.65437V9.62712H4.21185V11.7831ZM4.22445 8.8H1.66697V6.64407H4.22445V8.8ZM7.8276 14.7661H5.27012V12.6102H7.8276V14.7661ZM7.8276 11.7831H5.27012V9.62712H7.8276V11.7831ZM7.8402 8.8H5.28272V6.64407H7.8402V8.8ZM11.393 14.7661H8.83548V12.6102H11.393V14.7661ZM11.393 11.7831H8.83548V9.62712H11.393V11.7831ZM11.4056 8.8H8.84807V6.64407H11.4056V8.8ZM15.0087 14.7661H12.4512V12.6102H15.0087V14.7661ZM15.0087 11.7831H12.4512V9.62712H15.0087V11.7831ZM15.0213 8.8H12.4638V6.64407H15.0213V8.8ZM15.0213 5.58644H1.65437V3.83729C1.65437 3.66102 1.79296 3.51186 1.95674 3.51186H14.7189C14.8827 3.51186 15.0213 3.66102 15.0213 3.83729V5.58644Z" fill="#222222"/>
</g>
<defs>
<clipPath id="clip0_1611_390">
<rect width="16" height="16" fill="white" transform="translate(0.394531)"/>
</clipPath>
</defs>
</svg>
