<svg width="13" height="10" viewBox="0 0 13 10" fill="none" xmlns="http://www.w3.org/2000/svg">
<path fill-rule="evenodd" clip-rule="evenodd" d="M13 1.44444H10.71C10.4126 0.602917 9.61005 0 8.66667 0C7.72329 0 6.92073 0.602917 6.62329 1.44444H0V2.88889H6.62329C6.92072 3.73042 7.72329 4.33333 8.66667 4.33333C9.61005 4.33333 10.4126 3.73042 10.71 2.88889H13V1.44444ZM6.37671 7.94444H13V6.5H6.37671C6.07928 5.65847 5.27671 5.05556 4.33333 5.05556C3.38995 5.05556 2.58739 5.65847 2.28995 6.5H0V7.94444H2.28995C2.58739 8.78597 3.38995 9.38889 4.33333 9.38889C5.27671 9.38889 6.07928 8.78597 6.37671 7.94444Z" fill="#222222"/>
</svg>
