<svg width="20" height="17" viewBox="0 0 20 17" fill="none" xmlns="http://www.w3.org/2000/svg">
<g clip-path="url(#clip0_1907_14019)">
<path d="M6.60634 8.83085C8.24858 8.83085 9.57988 7.50109 9.57988 5.86074C9.57988 4.22039 8.24858 2.89062 6.60634 2.89062C4.96411 2.89062 3.63281 4.22039 3.63281 5.86074C3.63281 7.50109 4.96411 8.83085 6.60634 8.83085Z" fill="#222222"/>
<path d="M15.1815 12.6468C16.4174 12.6468 17.4254 11.6422 17.4254 10.4054C17.4254 9.16866 16.4197 8.16406 15.1815 8.16406C13.9433 8.16406 12.9375 9.16866 12.9375 10.4054C12.9375 11.6422 13.9433 12.6468 15.1815 12.6468Z" fill="#222222"/>
<path d="M19.5397 16.0805H19.3717C19.3003 15.5264 19.1139 14.9724 18.8516 14.4736C19.4407 14.0276 19.8251 13.3218 19.8251 12.5287V2.44138C19.8251 1.09425 18.7273 0 17.3809 0H3.16226C1.81358 0 0.715765 1.09655 0.715765 2.44138V12.5264C0.715765 12.8805 0.794016 13.2161 0.929804 13.5195C0.897583 13.6943 0.874568 13.8713 0.858458 14.0483H0.460299C0.207135 14.0483 0 14.2552 0 14.508C0 14.7609 0.207135 14.9678 0.460299 14.9678H11.2704C11.1323 15.3195 11.0334 15.6943 10.9896 16.0782H10.8262C10.5731 16.0782 10.3659 16.2851 10.3659 16.5379C10.3659 16.7908 10.5731 16.9977 10.8262 16.9977H19.542C19.7952 16.9977 20.0023 16.7908 20.0023 16.5379C20.0023 16.2851 19.7952 16.0782 19.542 16.0782L19.5397 16.0805ZM2.09666 2.44138C2.09666 1.85517 2.57307 1.37931 3.15995 1.37931H17.3786C17.9655 1.37931 18.4419 1.85517 18.4419 2.44138V12.5264C18.4419 12.8552 18.29 13.1448 18.0552 13.3402C17.6295 12.8851 17.16 12.577 16.7434 12.5218C16.5938 12.5012 16.4419 12.5563 16.3406 12.669L15.5098 13.5885H14.8585C14.4281 13.1126 14.0299 12.6874 14.0046 12.6621C13.8826 12.5333 13.6985 12.4851 13.5282 12.5379C13.0955 12.6782 12.6444 12.9885 12.244 13.4138C11.7745 11.2644 10.0644 9.1954 8.78251 9.02759C8.63291 9.0092 8.48101 9.06437 8.37975 9.17471L6.60529 11.1402C5.82969 10.2529 4.85616 9.21609 4.81013 9.16782C4.68815 9.03678 4.50173 8.99081 4.33372 9.04368C3.55581 9.29425 2.74108 9.95173 2.08976 10.8414V2.44138H2.09666Z" fill="#222222"/>
</g>
<defs>
<clipPath id="clip0_1907_14019">
<rect width="20" height="17" fill="white"/>
</clipPath>
</defs>
</svg>
