<svg width="16" height="16" viewBox="0 0 16 16" fill="none" xmlns="http://www.w3.org/2000/svg">
<path d="M0 1.93096V10.7588C0 11.8249 0.881085 12.6898 1.96887 12.6898H7.83882L11.9558 16V12.6895H14.0311C15.1183 12.6895 16 11.8246 16 10.7585V1.93096C15.9997 0.864593 15.1183 0 14.0311 0H1.96887C0.881085 0 0 0.864593 0 1.93096ZM10.538 6.34459C10.538 5.65926 11.1044 5.10341 11.8037 5.10341C12.503 5.10341 13.0693 5.65926 13.0693 6.34459C13.0693 7.03052 12.503 7.58607 11.8037 7.58607C11.1044 7.58607 10.538 7.03081 10.538 6.34459ZM6.73417 6.34459C6.73417 5.65926 7.30116 5.10341 7.99985 5.10341C8.69854 5.10341 9.26553 5.65926 9.26553 6.34459C9.26553 7.03052 8.69854 7.58607 7.99985 7.58607C7.30116 7.58607 6.73417 7.03081 6.73417 6.34459ZM2.93065 6.34459C2.93065 5.65926 3.49764 5.10341 4.19633 5.10341C4.89562 5.10341 5.46201 5.65926 5.46201 6.34459C5.46201 7.03052 4.89562 7.58607 4.19633 7.58607C3.49734 7.58637 2.93065 7.03081 2.93065 6.34459Z" fill="#222222"/>
</svg>
