<svg width="16" height="16" viewBox="0 0 16 16" fill="none" xmlns="http://www.w3.org/2000/svg">
<path fill-rule="evenodd" clip-rule="evenodd" d="M15 0H1C0.449992 0 0 0.449992 0 1V12.3333C0 12.8833 0.449992 13.3333 1 13.3333H5V14H4.33333C4.15 14 4 14.15 4 14.3333V15.6667C4 15.85 4.15 16 4.33333 16H11.6667C11.85 16 12 15.85 12 15.6667V14.3333C12 14.15 11.85 14 11.6667 14H11V13.3333H15C15.55 13.3333 16 12.8833 16 12.3333V1C16 0.449992 15.55 0 15 0ZM13.3333 12H12C11.8167 12 11.6667 11.85 11.6667 11.6667C11.6667 11.4833 11.8167 11.3333 12 11.3333H13.3333C13.5167 11.3333 13.6667 11.4833 13.6667 11.6667C13.6667 11.85 13.5167 12 13.3333 12ZM9.40784 5.43056H8.9244C8.84623 5.43056 8.76807 5.46461 8.71596 5.52653L7.9604 6.38408L7.20484 5.52653C7.15274 5.46461 7.07457 5.43056 6.9964 5.43056H6.51297C5.57213 5.43056 4.77604 6.21071 4.77604 7.1364V8.83605C4.77604 9.00632 4.90631 9.14564 5.06553 9.14564H10.8553C11.0145 9.14564 11.1448 9.00632 11.1448 8.83605V7.1364C11.1448 6.21071 10.3487 5.43056 9.40784 5.43056ZM9.28732 3.57334C9.28732 4.30613 8.69328 4.90016 7.9605 4.90016C7.22772 4.90016 6.63368 4.30613 6.63368 3.57334C6.63368 2.84056 7.22772 2.24653 7.9605 2.24653C8.69328 2.24653 9.28732 2.84056 9.28732 3.57334Z" fill="#222222"/>
</svg>
