<svg width="15" height="15" viewBox="0 0 15 15" fill="none" xmlns="http://www.w3.org/2000/svg">
<path fill-rule="evenodd" clip-rule="evenodd" d="M0.9375 0H14.0625C14.5781 0 15 0.421867 15 0.9375V11.5625C15 12.0781 14.5781 12.5 14.0625 12.5H10.3125V13.125H10.9375C11.1094 13.125 11.25 13.2656 11.25 13.4375V14.6875C11.25 14.8594 11.1094 15 10.9375 15H4.0625C3.89063 15 3.75 14.8594 3.75 14.6875V13.4375C3.75 13.2656 3.89063 13.125 4.0625 13.125H4.6875V12.5H0.9375C0.421867 12.5 0 12.0781 0 11.5625V0.9375C0 0.421867 0.421867 0 0.9375 0ZM10.9375 10.9375C10.9375 11.1094 11.0781 11.25 11.25 11.25H12.5C12.6719 11.25 12.8125 11.1094 12.8125 10.9375C12.8125 10.7656 12.6719 10.625 12.5 10.625H11.25C11.0781 10.625 10.9375 10.7656 10.9375 10.9375ZM12.2917 2.08459H1.875V2.91792H12.2917V2.08459ZM1.875 4.58383H11.0417V5.41717H1.875V4.58383ZM11.875 7.08308H1.875V7.91642H11.875V7.08308Z" fill="#222222"/>
</svg>
