<svg width="17" height="20" viewBox="0 0 17 20" fill="none" xmlns="http://www.w3.org/2000/svg">
<path d="M3.40752 9.08701C4.66219 9.08701 5.6793 8.0699 5.6793 6.81523C5.6793 5.56057 4.66219 4.54346 3.40752 4.54346C2.15285 4.54346 1.13574 5.56057 1.13574 6.81523C1.13574 8.0699 2.15285 9.08701 3.40752 9.08701Z" fill="#222222"/>
<path d="M0.41305 14.4207H1.6522V18.8654C1.6522 18.9833 1.69572 19.0964 1.77318 19.1797C1.85064 19.2631 1.9557 19.3099 2.06525 19.3099H3.3044V14.8651C3.3044 14.7472 3.34792 14.6342 3.42538 14.5508C3.50284 14.4675 3.60791 14.4207 3.71745 14.4207C3.827 14.4207 3.93206 14.4675 4.00952 14.5508C4.08699 14.6342 4.1305 14.7472 4.1305 14.8651V19.3099H5.36965C5.4792 19.3099 5.58426 19.2631 5.66173 19.1797C5.73919 19.0964 5.7827 18.9833 5.7827 18.8654V11.7538H7.53817C7.64772 11.7538 7.75278 11.707 7.83024 11.6236C7.9077 11.5402 7.95122 11.4272 7.95122 11.3093V9.53139C7.95122 9.41351 7.9077 9.30045 7.83024 9.2171C7.75278 9.13374 7.64772 9.08691 7.53817 9.08691H1.6522C1.21401 9.08691 0.793766 9.27423 0.483919 9.60765C0.174071 9.94108 0 10.3933 0 10.8648V13.9762C0 14.0941 0.0435178 14.2071 0.12098 14.2905C0.198442 14.3738 0.303503 14.4207 0.41305 14.4207Z" fill="#222222"/>
<path fill-rule="evenodd" clip-rule="evenodd" d="M3.8883 0H16.2364C16.364 0 16.4864 0.0506842 16.5766 0.140903C16.6668 0.231121 16.7175 0.353483 16.7175 0.481071L16.7175 12.5816C16.7175 12.7092 16.6668 12.8316 16.5766 12.9218C16.4864 13.012 16.364 13.0627 16.2364 13.0627H6.72802C6.60043 13.0627 6.47807 13.012 6.38785 12.9218C6.29763 12.8316 6.24695 12.7092 6.24695 12.5816V12.341H8.15489C8.41006 12.341 8.65479 12.2397 8.83522 12.0592C9.01566 11.8788 9.11703 11.6341 9.11703 11.3789V10.4168V9.45461C9.11703 9.19944 9.01566 8.95471 8.83522 8.77428C8.65479 8.59384 8.41006 8.49247 8.15489 8.49247H6.01045C6.29093 7.99733 6.45105 7.42503 6.45105 6.81533C6.45105 5.05624 5.11816 3.60846 3.40723 3.42686V0.481071C3.40723 0.353483 3.45791 0.231121 3.54813 0.140903C3.63835 0.0506842 3.76071 0 3.8883 0ZM12.6546 10.5836H13.35C13.4776 10.5836 13.6 10.5329 13.6902 10.4427C13.7804 10.3524 13.8311 10.2301 13.8311 10.1025C13.8311 9.97491 13.7804 9.85255 13.6902 9.76233C13.6 9.67211 13.4776 9.62143 13.35 9.62143H12.6546C12.527 9.62143 12.4047 9.67211 12.3144 9.76233C12.2242 9.85255 12.1735 9.97491 12.1735 10.1025C12.1735 10.2301 12.2242 10.3524 12.3144 10.4427C12.4047 10.5329 12.527 10.5836 12.6546 10.5836ZM11.1445 7.21607H13.35C13.4776 7.21607 13.6 7.16539 13.6902 7.07517C13.7804 6.98495 13.8311 6.86259 13.8311 6.735C13.8311 6.60741 13.7804 6.48505 13.6902 6.39483C13.6 6.30461 13.4776 6.25393 13.35 6.25393H11.1445C11.0169 6.25393 10.8946 6.30461 10.8044 6.39483C10.7141 6.48505 10.6635 6.60741 10.6635 6.735C10.6635 6.86259 10.7141 6.98495 10.8044 7.07517C10.8946 7.16539 11.0169 7.21607 11.1445 7.21607ZM10.1824 3.84857H13.35C13.4776 3.84857 13.6 3.79789 13.6902 3.70767C13.7804 3.61745 13.8311 3.49509 13.8311 3.3675C13.8311 3.23991 13.7804 3.11755 13.6902 3.02733C13.6 2.93711 13.4776 2.88643 13.35 2.88643H10.1824C10.0548 2.88643 9.93244 2.93711 9.84223 3.02733C9.75201 3.11755 9.70132 3.23991 9.70132 3.3675C9.70132 3.49509 9.75201 3.61745 9.84223 3.70767C9.93244 3.79789 10.0548 3.84857 10.1824 3.84857Z" fill="#222222"/>
</svg>
