<svg width="17" height="20" viewBox="0 0 17 20" fill="none" xmlns="http://www.w3.org/2000/svg">
<path d="M8.26667 10C8.835 10 9.3217 9.804 9.72677 9.412C10.1311 9.02067 10.3333 8.55 10.3333 8C10.3333 7.45 10.1311 6.979 9.72677 6.587C9.3217 6.19567 8.835 6 8.26667 6C7.69833 6 7.21198 6.19567 6.8076 6.587C6.40253 6.979 6.2 7.45 6.2 8C6.2 8.55 6.40253 9.02067 6.8076 9.412C7.21198 9.804 7.69833 10 8.26667 10ZM8.26667 20C5.49389 17.7167 3.42309 15.5957 2.05427 13.637C0.684755 11.679 0 9.86667 0 8.2C0 5.7 0.831145 3.70833 2.49343 2.225C4.15503 0.741667 6.07944 0 8.26667 0C10.4539 0 12.3783 0.741667 14.0399 2.225C15.7022 3.70833 16.5333 5.7 16.5333 8.2C16.5333 9.86667 15.8489 11.679 14.4801 13.637C13.1106 15.5957 11.0394 17.7167 8.26667 20Z" fill="#222222"/>
</svg>
